<svg width="43" height="39" viewBox="0 0 43 39" fill="none" xmlns="http://www.w3.org/2000/svg">
<path d="M21.5038 0.00035879C27.8662 0.00035879 34.2287 -0.00188377 40.5922 0.00484422C41.1193 0.00484422 41.5914 0.213412 42.0074 0.532992C42.5759 0.970312 42.8876 1.55901 42.9975 2.26097C43.0031 2.29461 42.9975 2.32937 42.9975 2.36301C42.9975 10.8403 42.9975 19.3176 42.9975 27.7948C42.9975 28.3364 42.817 28.8197 42.4895 29.2481C42.0948 29.7639 41.5768 30.0936 40.9399 30.2248C40.8333 30.2461 40.7246 30.264 40.6113 30.264C35.5462 30.2618 30.4812 30.2629 25.4161 30.2595C25.2905 30.2595 25.2446 30.2797 25.2457 30.421C25.2535 31.3102 25.2524 32.2006 25.2457 33.0898C25.2457 33.2142 25.2804 33.2378 25.3982 33.2378C26.487 33.2333 27.5758 33.2322 28.6646 33.2355C29.2017 33.2378 29.712 33.3746 30.2076 33.5731C30.8748 33.8399 31.4231 34.2739 31.8952 34.8054C32.2484 35.2035 32.5063 35.6655 32.6925 36.1645C32.8416 36.5648 32.9257 36.9797 32.956 37.408C32.9706 37.6222 32.9975 37.8285 32.8999 38.0281C32.7766 38.2782 32.5792 38.4116 32.2933 38.4116C25.2547 38.4116 18.216 38.4116 11.1786 38.4116C11.0283 38.4116 10.8769 38.4038 10.7267 38.4127C10.3443 38.4385 10.0191 38.1167 10.0247 37.7153C10.0326 37.1423 10.1346 36.5861 10.351 36.0501C10.6235 35.3739 11.0373 34.7987 11.5834 34.3244C12.1754 33.8097 12.8583 33.4721 13.6332 33.3174C13.9662 33.2512 14.2981 33.2333 14.6356 33.2344C15.6269 33.2367 16.6193 33.2344 17.6105 33.2378C17.7249 33.2378 17.7541 33.2098 17.7529 33.0954C17.7485 32.2062 17.7473 31.3158 17.7529 30.4266C17.7529 30.2977 17.726 30.2584 17.5881 30.2595C12.5522 30.264 7.51629 30.2629 2.48151 30.2629C1.92981 30.2629 1.43867 30.0801 1.00471 29.7448C0.494507 29.3501 0.167079 28.8366 0.0381253 28.2041C0.0156987 28.0931 0 27.9787 0 27.861C0.00224267 19.4129 0.00224267 10.9648 0 2.51663C0 1.94139 0.192869 1.43679 0.539361 0.987132C0.93407 0.475804 1.4611 0.174166 2.0868 0.037363C2.19445 0.013815 2.30658 0.00372351 2.41647 0.00372351C8.77891 0.00260217 15.1414 0.00260194 21.5049 0.00260194L21.5038 0.00035879Z" fill="black"/>
<path d="M21.5015 23.2647C14.8374 23.2647 8.17329 23.2647 1.50921 23.268C1.36904 23.268 1.33765 23.2355 1.33765 23.0953C1.34213 16.3102 1.34101 9.52385 1.34325 2.73866C1.34325 2.33722 1.44081 1.96606 1.76263 1.68797C1.99026 1.49062 2.24817 1.36615 2.55541 1.36615C15.1839 1.36615 27.8123 1.36615 40.4408 1.36615C41.053 1.36615 41.5834 1.87972 41.6361 2.49085C41.663 2.79697 41.6574 3.10085 41.6574 3.40473C41.6596 9.96677 41.6574 16.5288 41.663 23.0909C41.663 23.2434 41.6204 23.2669 41.4802 23.2669C34.8206 23.2635 28.1622 23.2635 21.5026 23.2635L21.5015 23.2647Z" fill="#F5F5F5"/>
<path d="M21.5061 24.6047C28.1702 24.6047 34.8343 24.6047 41.4983 24.6013C41.6385 24.6013 41.6609 24.645 41.6598 24.7706C41.6553 25.6991 41.662 26.6275 41.6553 27.556C41.652 27.9967 41.514 28.3869 41.1474 28.6628C40.9803 28.7883 40.7874 28.8601 40.5811 28.8915C40.312 28.933 40.0406 28.9207 39.7704 28.9207C27.429 28.9207 15.0876 28.9207 2.74619 28.9195C2.30999 28.9195 1.91192 28.8052 1.62598 28.4419C1.47684 28.2523 1.38265 28.0415 1.36808 27.7993C1.30528 26.7912 1.3591 25.7809 1.3378 24.7717C1.33556 24.6473 1.35686 24.6013 1.49815 24.6013C8.16672 24.6058 14.8364 24.6047 21.505 24.6047H21.5061Z" fill="#F5F5F5"/>
<path d="M21.4858 37.0447C18.2048 37.0447 14.9238 37.0447 11.6428 37.0447C11.4779 37.0447 11.4791 37.0447 11.5228 36.8855C11.6562 36.3955 11.9052 35.9739 12.2505 35.6005C12.6497 35.1676 13.1319 34.8806 13.6926 34.7169C13.9168 34.6507 14.1456 34.6047 14.3811 34.6047C19.0817 34.6047 23.7823 34.607 28.4818 34.6025C29.1613 34.6025 29.7691 34.8122 30.3085 35.2035C30.8534 35.5993 31.2358 36.1264 31.4433 36.7723C31.5023 36.9547 31.4395 37.0455 31.2549 37.0447C27.9985 37.0447 24.7411 37.0447 21.4847 37.0447H21.4858Z" fill="#F5F5F5"/>
<path d="M21.4892 33.2333C20.7458 33.2333 20.0034 33.2311 19.26 33.2355C19.1546 33.2355 19.1097 33.221 19.1109 33.0976C19.1165 32.1994 19.1165 31.3001 19.1109 30.4019C19.1109 30.2853 19.1434 30.2595 19.2566 30.2595C20.7525 30.2629 22.2483 30.264 23.7442 30.2595C23.8653 30.2595 23.8855 30.2976 23.8855 30.4064C23.881 31.3046 23.881 32.2039 23.8855 33.1021C23.8855 33.2142 23.8541 33.2367 23.7476 33.2367C22.9952 33.2322 22.2416 33.2344 21.4892 33.2344V33.2333Z" fill="#F5F5F5"/>
</svg>
