<svg width="43" height="54" viewBox="0 0 43 54" fill="none" xmlns="http://www.w3.org/2000/svg">
<path d="M21.5038 0.000498943C27.8662 0.000498943 34.2287 -0.00261962 40.5922 0.0067365C41.1193 0.0067365 41.5914 0.296776 42.0074 0.741192C42.5759 1.34934 42.8876 2.168 42.9975 3.14416C43.0031 3.19094 42.9975 3.23928 42.9975 3.28606C42.9975 15.0748 42.9975 26.8635 42.9975 38.6522C42.9975 39.4054 42.817 40.0774 42.4895 40.6731C42.0948 41.3904 41.5768 41.8489 40.9399 42.0313C40.8333 42.0609 40.7246 42.0859 40.6113 42.0859C35.5463 42.0828 30.4812 42.0843 25.4161 42.0796C25.2905 42.0796 25.2446 42.1077 25.2457 42.3042C25.2535 43.5408 25.2524 44.7789 25.2457 46.0155C25.2457 46.1885 25.2804 46.2213 25.3982 46.2213C26.487 46.2151 27.5758 46.2135 28.6646 46.2182C29.2017 46.2213 29.712 46.4115 30.2076 46.6875C30.8748 47.0587 31.4231 47.6621 31.8952 48.4013C32.2484 48.9548 32.5063 49.5973 32.6925 50.2912C32.8416 50.8479 32.9257 51.4249 32.956 52.0205C32.9706 52.3184 32.9975 52.6053 32.8999 52.8828C32.7766 53.2306 32.5792 53.4162 32.2933 53.4162C25.2547 53.4162 18.216 53.4162 11.1786 53.4162C11.0283 53.4162 10.8769 53.4052 10.7267 53.4177C10.3443 53.4536 10.0191 53.006 10.0247 52.4478C10.0326 51.651 10.1346 50.8775 10.351 50.1322C10.6235 49.1919 11.0373 48.3919 11.5834 47.7323C12.1754 47.0166 12.8583 46.5472 13.6332 46.332C13.9662 46.24 14.2981 46.2151 14.6356 46.2166C15.6269 46.2197 16.6193 46.2166 17.6105 46.2213C17.7249 46.2213 17.7541 46.1823 17.7529 46.0233C17.7485 44.7867 17.7473 43.5486 17.7529 42.312C17.7529 42.1327 17.726 42.0781 17.5881 42.0796C12.5522 42.0859 7.51629 42.0843 2.48151 42.0843C1.92981 42.0843 1.43867 41.8302 1.00471 41.3639C0.494507 40.815 0.167079 40.1008 0.0381253 39.2214C0.0156987 39.067 0 38.9079 0 38.7442C0.00224267 26.996 0.00224267 15.2479 0 3.49969C0 2.69974 0.192869 1.99803 0.539361 1.37273C0.93407 0.661665 1.4611 0.242199 2.0868 0.0519579C2.19445 0.0192115 2.30658 0.005178 2.41647 0.005178C8.77891 0.00361865 15.1414 0.00361832 21.5049 0.00361832L21.5038 0.000498943Z" fill="black"/>
<path d="M21.5015 32.3524C14.8374 32.3524 8.17335 32.3524 1.50927 32.3571C1.3691 32.3571 1.33771 32.3119 1.33771 32.117C1.34219 22.6813 1.34107 13.2441 1.34331 3.80846C1.34331 3.25021 1.44087 2.73407 1.76269 2.34735C1.99032 2.0729 2.24823 1.89981 2.55547 1.89981C15.1839 1.89981 27.8124 1.89981 40.4408 1.89981C41.0531 1.89981 41.5835 2.614 41.6362 3.46384C41.6631 3.88955 41.6575 4.31213 41.6575 4.73472C41.6597 13.8601 41.6575 22.9854 41.6631 32.1107C41.6631 32.3228 41.6205 32.3555 41.4803 32.3555C34.8207 32.3509 28.1622 32.3509 21.5026 32.3509L21.5015 32.3524Z" fill="#F5F5F5"/>
<path d="M21.5061 34.2158C28.1701 34.2158 34.8342 34.2158 41.4983 34.2112C41.6385 34.2112 41.6609 34.272 41.6598 34.4466C41.6553 35.7378 41.662 37.0289 41.6553 38.32C41.6519 38.9329 41.514 39.4755 41.1473 39.8591C40.9802 40.0338 40.7874 40.1336 40.5811 40.1772C40.3119 40.2349 40.0406 40.2178 39.7703 40.2178C27.4289 40.2178 15.0876 40.2178 2.74616 40.2162C2.30996 40.2162 1.91189 40.0572 1.62595 39.5519C1.47681 39.2884 1.38262 38.9952 1.36804 38.6584C1.30525 37.2566 1.35907 35.8516 1.33777 34.4482C1.33553 34.2751 1.35683 34.2112 1.49812 34.2112C8.16668 34.2174 14.8364 34.2158 21.5049 34.2158H21.5061Z" fill="#F5F5F5"/>
<path d="M21.4859 51.5153C18.2048 51.5153 14.9238 51.5153 11.6428 51.5153C11.478 51.5153 11.4791 51.5153 11.5228 51.2939C11.6563 50.6125 11.9052 50.0261 12.2506 49.5069C12.6498 48.905 13.1319 48.5058 13.6926 48.2781C13.9169 48.1861 14.1456 48.1222 14.3811 48.1222C19.0817 48.1222 23.7823 48.1253 28.4819 48.119C29.1614 48.119 29.7691 48.4107 30.3085 48.9549C30.8535 49.5053 31.2358 50.2382 31.4433 51.1364C31.5023 51.3901 31.4396 51.5164 31.2549 51.5153C27.9986 51.5153 24.7411 51.5153 21.4847 51.5153H21.4859Z" fill="#F5F5F5"/>
<path d="M21.4891 46.2151C20.7457 46.2151 20.0034 46.212 19.2599 46.2182C19.1545 46.2182 19.1097 46.1979 19.1108 46.0264C19.1164 44.7773 19.1164 43.5267 19.1108 42.2777C19.1108 42.1155 19.1433 42.0797 19.2566 42.0797C20.7524 42.0843 22.2483 42.0859 23.7441 42.0797C23.8652 42.0797 23.8854 42.1327 23.8854 42.2839C23.8809 43.533 23.8809 44.7836 23.8854 46.0326C23.8854 46.1886 23.854 46.2198 23.7475 46.2198C22.9951 46.2135 22.2416 46.2166 21.4891 46.2166V46.2151Z" fill="#F5F5F5"/>
</svg>
